<svg version="1.1" id="Layer_1" xmlns="http://www.w3.org/2000/svg" xmlns:xlink="http://www.w3.org/1999/xlink" x="0px" y="0px"
	 width="100%" viewBox="0 0 512 512" enable-background="new 0 0 512 512" xml:space="preserve">
<path fill="#000000" opacity="1.000000" stroke="none" 
	d="
M292.000000,513.000000 
	C194.690292,513.000000 97.880577,513.000000 1.035435,513.000000 
	C1.035435,342.398590 1.035435,171.797195 1.035435,1.097890 
	C171.559723,1.097890 342.119537,1.097890 512.839661,1.097890 
	C512.839661,171.666550 512.839661,342.333252 512.839661,513.000000 
	C439.463837,513.000000 365.981903,513.000000 292.000000,513.000000 
M9.017927,259.839294 
	C9.012071,281.495697 8.916989,303.152863 9.111298,324.807465 
	C9.136076,327.568939 10.154994,330.628510 11.596878,333.016479 
	C17.477226,342.755066 27.286036,347.545502 37.420757,350.787140 
	C51.500977,355.290741 65.851067,359.367554 80.385048,361.926575 
	C97.321800,364.908661 114.543465,367.119476 131.710632,367.734100 
	C153.763931,368.523621 175.886017,367.391998 197.995712,367.960632 
	C198.076279,369.783447 197.966370,371.638428 198.267670,373.424011 
	C200.597977,387.233673 204.374588,400.604492 209.958282,413.495270 
	C217.872528,431.766541 229.094757,447.858612 243.293335,461.551025 
	C256.842255,474.616974 272.338501,485.148193 289.910492,492.570129 
	C307.417969,499.964752 325.611633,504.067963 344.438873,504.813477 
	C354.284149,505.203308 364.242432,504.020508 374.084351,502.948273 
	C395.069000,500.662079 414.261017,492.961945 432.033508,481.910645 
	C457.596680,466.014862 476.979462,444.435516 489.990479,417.164185 
	C497.938629,400.504669 502.300720,383.061401 504.220367,364.684937 
	C505.667969,350.827362 504.931061,337.200409 502.646637,323.712341 
	C499.527863,305.298096 493.147827,287.864319 483.363861,271.824371 
	C473.753540,256.069061 461.907684,242.288071 447.448547,230.717850 
	C435.790497,221.389099 423.187744,213.730774 409.362701,208.161301 
	C393.548737,201.790604 377.112030,197.959396 360.058990,197.012390 
	C339.576843,195.874939 319.623596,198.874664 300.014740,203.965851 
	C299.955658,188.301254 299.896606,172.636673 299.936432,156.042679 
	C299.897949,145.100693 299.859436,134.158691 299.980591,122.263878 
	C299.935608,99.862389 299.890625,77.460899 299.986176,54.196049 
	C300.621613,48.307976 298.655426,43.144276 294.059570,39.756664 
	C288.153290,35.403133 281.968994,31.152899 275.327118,28.124332 
	C257.863739,20.161350 239.237350,16.056074 220.238007,13.995620 
	C201.737869,11.989303 183.191666,9.802753 164.619232,9.246679 
	C147.781021,8.742529 130.834930,9.777243 114.020599,11.158525 
	C99.155334,12.379694 84.274376,14.340177 69.640717,17.202971 
	C53.222984,20.414783 37.012276,24.842047 22.530993,33.818966 
	C14.632355,38.715317 8.316870,44.649944 9.028805,55.986324 
	C9.074508,78.351456 9.120211,100.716591 9.068696,124.003036 
	C9.106052,134.925659 9.143409,145.848267 9.025610,157.725937 
	C9.078247,180.225250 9.130884,202.724579 9.076917,226.114273 
	C9.108146,237.042969 9.139375,247.971664 9.017927,259.839294 
z"/>
<path fill="#36718A" opacity="1.000000" stroke="none" 
	d="
M300.072906,204.887238 
	C319.623596,198.874664 339.576843,195.874939 360.058990,197.012390 
	C377.112030,197.959396 393.548737,201.790604 409.362701,208.161301 
	C423.187744,213.730774 435.790497,221.389099 447.448547,230.717850 
	C461.907684,242.288071 473.753540,256.069061 483.363861,271.824371 
	C493.147827,287.864319 499.527863,305.298096 502.646637,323.712341 
	C504.931061,337.200409 505.667969,350.827362 504.220367,364.684937 
	C502.300720,383.061401 497.938629,400.504669 489.990479,417.164185 
	C476.979462,444.435516 457.596680,466.014862 432.033508,481.910645 
	C414.261017,492.961945 395.069000,500.662079 374.084351,502.948273 
	C364.242432,504.020508 354.284149,505.203308 344.438873,504.813477 
	C325.611633,504.067963 307.417969,499.964752 289.910492,492.570129 
	C272.338501,485.148193 256.842255,474.616974 243.293335,461.551025 
	C229.094757,447.858612 217.872528,431.766541 209.958282,413.495270 
	C204.374588,400.604492 200.597977,387.233673 198.267670,373.424011 
	C197.966370,371.638428 198.076279,369.783447 197.989929,367.075653 
	C197.666443,362.071838 197.083939,357.953491 197.076096,353.834045 
	C197.038818,334.294403 200.177673,315.278320 207.028122,296.557343 
	C213.681213,284.239319 220.215530,272.259338 226.952728,259.985046 
	C245.132751,235.797882 267.921295,218.242264 295.858490,207.431015 
	C297.365723,206.847733 298.672699,205.747070 300.072906,204.887238 
M393.582611,360.499023 
	C393.528503,348.174530 393.990356,335.821075 393.300720,323.532257 
	C392.236481,304.567535 377.194183,290.797424 358.826355,291.093414 
	C340.395660,291.390411 325.599762,306.141205 325.253845,325.151642 
	C324.941711,342.302673 324.970642,359.467407 325.251648,376.619507 
	C325.516968,392.815918 336.214935,406.022522 351.451508,409.664215 
	C360.418030,411.807343 368.897247,410.126740 376.779236,405.899689 
	C382.096710,411.034576 386.185364,411.857574 390.169006,408.797424 
	C394.117828,405.764069 394.303192,401.321411 390.937408,395.425659 
	C390.277466,394.269623 389.548706,392.417725 390.020081,391.464508 
	C394.769348,381.860657 393.328125,371.588104 393.582611,360.499023 
M277.057220,393.138245 
	C265.478180,394.131775 258.187805,388.226379 257.050293,376.714142 
	C256.624634,372.406494 254.690918,368.845520 250.519012,368.453674 
	C247.687897,368.187775 243.719620,369.553955 241.934357,371.630066 
	C240.213715,373.631073 239.856598,377.590302 240.261810,380.499603 
	C242.167953,394.185089 249.647766,403.962799 262.734222,408.553741 
	C275.575836,413.058807 287.579620,410.603455 297.456909,401.143097 
	C307.943054,391.099579 310.962006,378.623871 306.037659,364.981079 
	C300.715271,350.235413 289.392639,343.148621 273.940948,342.208740 
	C263.768707,341.589996 256.837860,334.432648 257.015808,324.916901 
	C257.184052,315.918243 264.585114,308.448730 273.617706,308.161530 
	C282.738495,307.871490 290.042480,314.733643 291.044464,324.534180 
	C291.647980,330.436829 295.206787,334.088593 300.079681,333.805389 
	C305.062469,333.515808 308.184631,329.563812 308.082703,323.675262 
	C307.757843,304.908020 289.941437,289.243408 271.132843,291.188141 
	C251.048798,293.264740 236.714706,311.837158 240.402283,331.005249 
	C243.570374,347.472961 255.617722,357.870697 273.191650,359.304871 
	C283.303680,360.130096 290.007874,365.800995 290.959778,374.334442 
	C291.936951,383.094177 287.168365,389.918030 277.057220,393.138245 
M427.765686,318.500427 
	C427.763336,312.671356 427.857574,306.840210 427.732056,301.013794 
	C427.600159,294.889313 423.947266,290.937775 418.848267,291.120667 
	C413.871552,291.299194 410.686707,295.012970 410.677948,301.094330 
	C410.630219,334.236664 410.622711,367.379120 410.678375,400.521423 
	C410.690155,407.541290 413.718262,410.553772 420.763031,410.647125 
	C429.921387,410.768524 439.082672,410.707001 448.242401,410.661591 
	C450.561707,410.650116 452.937012,410.674133 455.186279,410.202942 
	C459.522766,409.294586 461.621582,406.199158 461.775360,401.946655 
	C461.923157,397.859833 458.747681,394.327423 454.481934,393.786621 
	C451.854492,393.453491 449.165405,393.565002 446.503662,393.552887 
	C440.411133,393.525177 434.318390,393.544159 427.765686,393.544159 
	C427.765686,368.391785 427.765686,343.946045 427.765686,318.500427 
z"/>
<path fill="#4184A9" opacity="1.000000" stroke="none" 
	d="
M9.165913,123.081726 
	C9.120211,100.716591 9.074508,78.351456 9.301317,55.771652 
	C13.364375,63.632404 19.744663,69.205559 27.661390,72.703217 
	C36.459076,76.590073 45.408943,80.386688 54.639950,82.991501 
	C83.940422,91.259544 114.088188,94.364273 144.376053,94.743446 
	C164.598770,94.996620 184.880341,93.444962 205.078796,91.939323 
	C226.037918,90.376991 246.646240,86.387802 266.478577,79.255890 
	C279.846313,74.448730 293.077332,69.119148 299.845642,55.059414 
	C299.890625,77.460899 299.935608,99.862389 299.725586,123.008240 
	C295.251892,134.247086 286.295166,139.781677 276.585327,143.312347 
	C262.874329,148.297974 248.847916,152.860916 234.584000,155.793365 
	C199.345901,163.037796 163.619904,164.264832 127.735092,162.235794 
	C99.383492,160.632690 71.329727,157.285828 44.346188,148.006256 
	C30.303991,143.177170 16.191944,138.012039 9.165913,123.081726 
z"/>
<path fill="#35718A" opacity="1.000000" stroke="none" 
	d="
M299.915894,54.627731 
	C293.077332,69.119148 279.846313,74.448730 266.478577,79.255890 
	C246.646240,86.387802 226.037918,90.376991 205.078796,91.939323 
	C184.880341,93.444962 164.598770,94.996620 144.376053,94.743446 
	C114.088188,94.364273 83.940422,91.259544 54.639950,82.991501 
	C45.408943,80.386688 36.459076,76.590073 27.661390,72.703217 
	C19.744663,69.205559 13.364375,63.632404 9.355120,55.309662 
	C8.316870,44.649944 14.632355,38.715317 22.530993,33.818966 
	C37.012276,24.842047 53.222984,20.414783 69.640717,17.202971 
	C84.274376,14.340177 99.155334,12.379694 114.020599,11.158525 
	C130.834930,9.777243 147.781021,8.742529 164.619232,9.246679 
	C183.191666,9.802753 201.737869,11.989303 220.238007,13.995620 
	C239.237350,16.056074 257.863739,20.161350 275.327118,28.124332 
	C281.968994,31.152899 288.153290,35.403133 294.059570,39.756664 
	C298.655426,43.144276 300.621613,48.307976 299.915894,54.627731 
z"/>
<path fill="#4184A9" opacity="1.000000" stroke="none" 
	d="
M300.043823,204.426544 
	C298.672699,205.747070 297.365723,206.847733 295.858490,207.431015 
	C267.921295,218.242264 245.132751,235.797882 226.552094,259.939209 
	C225.284042,260.200562 224.609024,260.141693 223.956436,260.236694 
	C195.617126,264.362488 167.196030,267.356415 138.515564,265.067291 
	C119.960655,263.586334 101.358208,262.261475 82.931076,259.740814 
	C63.927193,257.141205 45.338020,252.385849 28.044912,243.633118 
	C19.849854,239.485291 12.722575,234.174957 9.183521,225.223892 
	C9.130884,202.724579 9.078247,180.225250 9.305464,157.545837 
	C12.788489,166.658966 20.422457,171.449707 28.491905,175.634720 
	C42.683380,182.994736 58.025059,187.004791 73.597679,189.916306 
	C124.176575,199.372711 174.935852,199.619583 225.720963,191.737717 
	C245.024597,188.741776 263.985413,184.225616 281.545593,175.204926 
	C289.562225,171.086746 296.586334,165.904037 299.837524,156.972076 
	C299.896606,172.636673 299.955658,188.301254 300.043823,204.426544 
z"/>
<path fill="#4184A9" opacity="1.000000" stroke="none" 
	d="
M206.909348,296.895355 
	C200.177673,315.278320 197.038818,334.294403 197.076096,353.834045 
	C197.083939,357.953491 197.666443,362.071838 197.981308,366.639343 
	C175.886017,367.391998 153.763931,368.523621 131.710632,367.734100 
	C114.543465,367.119476 97.321800,364.908661 80.385048,361.926575 
	C65.851067,359.367554 51.500977,355.290741 37.420757,350.787140 
	C27.286036,347.545502 17.477226,342.755066 11.596878,333.016479 
	C10.154994,330.628510 9.136076,327.568939 9.111298,324.807465 
	C8.916989,303.152863 9.012071,281.495697 9.281832,259.664337 
	C12.536709,263.600677 14.762300,268.788696 18.690727,271.581207 
	C25.253805,276.246582 32.602242,280.191956 40.153385,283.012756 
	C66.317535,292.786560 93.668648,297.291260 121.442841,298.431976 
	C143.316940,299.330383 165.250748,298.960846 187.155655,298.810425 
	C193.744293,298.765198 200.325012,297.565918 206.909348,296.895355 
z"/>
<path fill="#6DDF8E" opacity="1.000000" stroke="none" 
	d="
M299.886963,156.507385 
	C296.586334,165.904037 289.562225,171.086746 281.545593,175.204926 
	C263.985413,184.225616 245.024597,188.741776 225.720963,191.737717 
	C174.935852,199.619583 124.176575,199.372711 73.597679,189.916306 
	C58.025059,187.004791 42.683380,182.994736 28.491905,175.634720 
	C20.422457,171.449707 12.788489,166.658966 9.383040,157.068314 
	C9.143409,145.848267 9.106052,134.925659 9.117304,123.542381 
	C16.191944,138.012039 30.303991,143.177170 44.346188,148.006256 
	C71.329727,157.285828 99.383492,160.632690 127.735092,162.235794 
	C163.619904,164.264832 199.345901,163.037796 234.584000,155.793365 
	C248.847916,152.860916 262.874329,148.297974 276.585327,143.312347 
	C286.295166,139.781677 295.251892,134.247086 299.645752,123.484650 
	C299.859436,134.158691 299.897949,145.100693 299.886963,156.507385 
z"/>
<path fill="#6CDF8E" opacity="1.000000" stroke="none" 
	d="
M207.028122,296.557343 
	C200.325012,297.565918 193.744293,298.765198 187.155655,298.810425 
	C165.250748,298.960846 143.316940,299.330383 121.442841,298.431976 
	C93.668648,297.291260 66.317535,292.786560 40.153385,283.012756 
	C32.602242,280.191956 25.253805,276.246582 18.690727,271.581207 
	C14.762300,268.788696 12.536709,263.600677 9.358171,259.194885 
	C9.139375,247.971664 9.108146,237.042969 9.130219,225.669083 
	C12.722575,234.174957 19.849854,239.485291 28.044912,243.633118 
	C45.338020,252.385849 63.927193,257.141205 82.931076,259.740814 
	C101.358208,262.261475 119.960655,263.586334 138.515564,265.067291 
	C167.196030,267.356415 195.617126,264.362488 223.956436,260.236694 
	C224.609024,260.141693 225.284042,260.200562 226.349213,260.233521 
	C220.215530,272.259338 213.681213,284.239319 207.028122,296.557343 
z"/>
<path fill="#FBFCFC" opacity="1.000000" stroke="none" 
	d="
M393.582581,360.998535 
	C393.328125,371.588104 394.769348,381.860657 390.020081,391.464508 
	C389.548706,392.417725 390.277466,394.269623 390.937408,395.425659 
	C394.303192,401.321411 394.117828,405.764069 390.169006,408.797424 
	C386.185364,411.857574 382.096710,411.034576 376.779236,405.899689 
	C368.897247,410.126740 360.418030,411.807343 351.451508,409.664215 
	C336.214935,406.022522 325.516968,392.815918 325.251648,376.619507 
	C324.970642,359.467407 324.941711,342.302673 325.253845,325.151642 
	C325.599762,306.141205 340.395660,291.390411 358.826355,291.093414 
	C377.194183,290.797424 392.236481,304.567535 393.300720,323.532257 
	C393.990356,335.821075 393.528503,348.174530 393.582581,360.998535 
M376.427795,350.500061 
	C376.349457,341.338928 376.635773,332.155731 376.083740,323.023224 
	C375.593750,314.917023 368.661743,308.809448 360.425781,308.189636 
	C352.526031,307.595154 343.535065,313.112183 343.214661,320.999084 
	C342.405365,340.920349 342.045166,360.956024 343.331055,380.827728 
	C344.027191,391.585541 357.659912,396.612610 367.176971,390.932770 
	C365.028503,387.603210 362.752258,384.354828 360.772888,380.934662 
	C358.488586,376.987671 358.942749,373.150726 362.423462,370.118958 
	C365.909515,367.082550 369.691254,367.263794 373.382416,369.964478 
	C374.208649,370.568970 375.020874,371.192535 376.427856,372.249084 
	C376.427856,364.804565 376.427856,358.152283 376.427795,350.500061 
z"/>
<path fill="#FCFDFD" opacity="1.000000" stroke="none" 
	d="
M277.481140,393.077057 
	C287.168365,389.918030 291.936951,383.094177 290.959778,374.334442 
	C290.007874,365.800995 283.303680,360.130096 273.191650,359.304871 
	C255.617722,357.870697 243.570374,347.472961 240.402283,331.005249 
	C236.714706,311.837158 251.048798,293.264740 271.132843,291.188141 
	C289.941437,289.243408 307.757843,304.908020 308.082703,323.675262 
	C308.184631,329.563812 305.062469,333.515808 300.079681,333.805389 
	C295.206787,334.088593 291.647980,330.436829 291.044464,324.534180 
	C290.042480,314.733643 282.738495,307.871490 273.617706,308.161530 
	C264.585114,308.448730 257.184052,315.918243 257.015808,324.916901 
	C256.837860,334.432648 263.768707,341.589996 273.940948,342.208740 
	C289.392639,343.148621 300.715271,350.235413 306.037659,364.981079 
	C310.962006,378.623871 307.943054,391.099579 297.456909,401.143097 
	C287.579620,410.603455 275.575836,413.058807 262.734222,408.553741 
	C249.647766,403.962799 242.167953,394.185089 240.261810,380.499603 
	C239.856598,377.590302 240.213715,373.631073 241.934357,371.630066 
	C243.719620,369.553955 247.687897,368.187775 250.519012,368.453674 
	C254.690918,368.845520 256.624634,372.406494 257.050293,376.714142 
	C258.187805,388.226379 265.478180,394.131775 277.481140,393.077057 
z"/>
<path fill="#FBFCFD" opacity="1.000000" stroke="none" 
	d="
M427.765686,319.000366 
	C427.765686,343.946045 427.765686,368.391785 427.765686,393.544159 
	C434.318390,393.544159 440.411133,393.525177 446.503662,393.552887 
	C449.165405,393.565002 451.854492,393.453491 454.481934,393.786621 
	C458.747681,394.327423 461.923157,397.859833 461.775360,401.946655 
	C461.621582,406.199158 459.522766,409.294586 455.186279,410.202942 
	C452.937012,410.674133 450.561707,410.650116 448.242401,410.661591 
	C439.082672,410.707001 429.921387,410.768524 420.763031,410.647125 
	C413.718262,410.553772 410.690155,407.541290 410.678375,400.521423 
	C410.622711,367.379120 410.630219,334.236664 410.677948,301.094330 
	C410.686707,295.012970 413.871552,291.299194 418.848267,291.120667 
	C423.947266,290.937775 427.600159,294.889313 427.732056,301.013794 
	C427.857574,306.840210 427.763336,312.671356 427.765686,319.000366 
z"/>
<path fill="#38738C" opacity="1.000000" stroke="none" 
	d="
M376.427826,351.000000 
	C376.427856,358.152283 376.427856,364.804565 376.427856,372.249084 
	C375.020874,371.192535 374.208649,370.568970 373.382416,369.964478 
	C369.691254,367.263794 365.909515,367.082550 362.423462,370.118958 
	C358.942749,373.150726 358.488586,376.987671 360.772888,380.934662 
	C362.752258,384.354828 365.028503,387.603210 367.176971,390.932770 
	C357.659912,396.612610 344.027191,391.585541 343.331055,380.827728 
	C342.045166,360.956024 342.405365,340.920349 343.214661,320.999084 
	C343.535065,313.112183 352.526031,307.595154 360.425781,308.189636 
	C368.661743,308.809448 375.593750,314.917023 376.083740,323.023224 
	C376.635773,332.155731 376.349457,341.338928 376.427826,351.000000 
z"/>
</svg>